<svg xmlns="http://www.w3.org/2000/svg" viewBox="0 0 340 420" width="340" height="420">
  <defs>
    <filter id="sketch">
      <feTurbulence type="fractalNoise" baseFrequency="0.04" numOctaves="5" seed="2" result="noise"/>
      <feDisplacementMap in="SourceGraphic" in2="noise" scale="1.2" xChannelSelector="R" yChannelSelector="G"/>
    </filter>
  </defs>

  <!-- Background -->
  <rect width="340" height="420" rx="4" fill="#F5F5F0" stroke="#E0D8C8" stroke-width="1.5"/>

  <!-- Sketch border lines (hand-drawn feel) -->
  <rect x="12" y="12" width="316" height="396" rx="2" fill="none" stroke="#C9A96E" stroke-width="1" stroke-dasharray="4,3" opacity="0.5"/>

  <!-- Grid dots -->
  <g opacity="0.12">
    <circle cx="40" cy="40" r="1.5" fill="#1D1D1F"/>
    <circle cx="80" cy="40" r="1.5" fill="#1D1D1F"/>
    <circle cx="120" cy="40" r="1.5" fill="#1D1D1F"/>
    <circle cx="160" cy="40" r="1.5" fill="#1D1D1F"/>
    <circle cx="200" cy="40" r="1.5" fill="#1D1D1F"/>
    <circle cx="240" cy="40" r="1.5" fill="#1D1D1F"/>
    <circle cx="280" cy="40" r="1.5" fill="#1D1D1F"/>
    <circle cx="40" cy="80" r="1.5" fill="#1D1D1F"/>
    <circle cx="80" cy="80" r="1.5" fill="#1D1D1F"/>
    <circle cx="120" cy="80" r="1.5" fill="#1D1D1F"/>
    <circle cx="160" cy="80" r="1.5" fill="#1D1D1F"/>
    <circle cx="200" cy="80" r="1.5" fill="#1D1D1F"/>
    <circle cx="240" cy="80" r="1.5" fill="#1D1D1F"/>
    <circle cx="280" cy="80" r="1.5" fill="#1D1D1F"/>
    <circle cx="40" cy="120" r="1.5" fill="#1D1D1F"/>
    <circle cx="80" cy="120" r="1.5" fill="#1D1D1F"/>
    <circle cx="120" cy="120" r="1.5" fill="#1D1D1F"/>
    <circle cx="160" cy="120" r="1.5" fill="#1D1D1F"/>
    <circle cx="200" cy="120" r="1.5" fill="#1D1D1F"/>
    <circle cx="240" cy="120" r="1.5" fill="#1D1D1F"/>
    <circle cx="280" cy="120" r="1.5" fill="#1D1D1F"/>
    <circle cx="40" cy="160" r="1.5" fill="#1D1D1F"/>
    <circle cx="80" cy="160" r="1.5" fill="#1D1D1F"/>
    <circle cx="120" cy="160" r="1.5" fill="#1D1D1F"/>
    <circle cx="160" cy="160" r="1.5" fill="#1D1D1F"/>
    <circle cx="200" cy="160" r="1.5" fill="#1D1D1F"/>
    <circle cx="240" cy="160" r="1.5" fill="#1D1D1F"/>
    <circle cx="280" cy="160" r="1.5" fill="#1D1D1F"/>
    <circle cx="40" cy="200" r="1.5" fill="#1D1D1F"/>
    <circle cx="80" cy="200" r="1.5" fill="#1D1D1F"/>
    <circle cx="120" cy="200" r="1.5" fill="#1D1D1F"/>
    <circle cx="160" cy="200" r="1.5" fill="#1D1D1F"/>
    <circle cx="200" cy="200" r="1.5" fill="#1D1D1F"/>
    <circle cx="240" cy="200" r="1.5" fill="#1D1D1F"/>
    <circle cx="280" cy="200" r="1.5" fill="#1D1D1F"/>
    <circle cx="40" cy="240" r="1.5" fill="#1D1D1F"/>
    <circle cx="80" cy="240" r="1.5" fill="#1D1D1F"/>
    <circle cx="120" cy="240" r="1.5" fill="#1D1D1F"/>
    <circle cx="160" cy="240" r="1.5" fill="#1D1D1F"/>
    <circle cx="200" cy="240" r="1.5" fill="#1D1D1F"/>
    <circle cx="240" cy="240" r="1.5" fill="#1D1D1F"/>
    <circle cx="280" cy="240" r="1.5" fill="#1D1D1F"/>
    <circle cx="40" cy="280" r="1.5" fill="#1D1D1F"/>
    <circle cx="80" cy="280" r="1.5" fill="#1D1D1F"/>
    <circle cx="120" cy="280" r="1.5" fill="#1D1D1F"/>
    <circle cx="160" cy="280" r="1.5" fill="#1D1D1F"/>
    <circle cx="200" cy="280" r="1.5" fill="#1D1D1F"/>
    <circle cx="240" cy="280" r="1.5" fill="#1D1D1F"/>
    <circle cx="280" cy="280" r="1.5" fill="#1D1D1F"/>
    <circle cx="40" cy="320" r="1.5" fill="#1D1D1F"/>
    <circle cx="80" cy="320" r="1.5" fill="#1D1D1F"/>
    <circle cx="120" cy="320" r="1.5" fill="#1D1D1F"/>
    <circle cx="160" cy="320" r="1.5" fill="#1D1D1F"/>
    <circle cx="200" cy="320" r="1.5" fill="#1D1D1F"/>
    <circle cx="240" cy="320" r="1.5" fill="#1D1D1F"/>
    <circle cx="280" cy="320" r="1.5" fill="#1D1D1F"/>
    <circle cx="40" cy="360" r="1.5" fill="#1D1D1F"/>
    <circle cx="80" cy="360" r="1.5" fill="#1D1D1F"/>
    <circle cx="120" cy="360" r="1.5" fill="#1D1D1F"/>
    <circle cx="160" cy="360" r="1.5" fill="#1D1D1F"/>
    <circle cx="200" cy="360" r="1.5" fill="#1D1D1F"/>
    <circle cx="240" cy="360" r="1.5" fill="#1D1D1F"/>
    <circle cx="280" cy="360" r="1.5" fill="#1D1D1F"/>
    <circle cx="40" cy="400" r="1.5" fill="#1D1D1F"/>
    <circle cx="80" cy="400" r="1.5" fill="#1D1D1F"/>
    <circle cx="120" cy="400" r="1.5" fill="#1D1D1F"/>
    <circle cx="160" cy="400" r="1.5" fill="#1D1D1F"/>
    <circle cx="200" cy="400" r="1.5" fill="#1D1D1F"/>
    <circle cx="240" cy="400" r="1.5" fill="#1D1D1F"/>
    <circle cx="280" cy="400" r="1.5" fill="#1D1D1F"/>
  </g>

  <!-- Sketch pencil icon (top-center) -->
  <g transform="translate(148, 48)">
    <!-- pencil body -->
    <rect x="14" y="0" width="16" height="48" rx="2" fill="#C9A96E" stroke="#A67C52" stroke-width="1.5" transform="rotate(-30, 22, 24)"/>
    <!-- pencil tip -->
    <polygon points="22,56 14,48 30,48" fill="#F5F5F0" stroke="#A67C52" stroke-width="1.2" transform="rotate(-30, 22, 52)"/>
    <!-- pencil eraser -->
    <rect x="14" y="-8" width="16" height="8" rx="1" fill="#ED6158" stroke="#c0504a" stroke-width="1" transform="rotate(-30, 22, -4)"/>
  </g>

  <!-- W initial — large sketch style -->
  <text x="170" y="158" font-family="Georgia, serif" font-size="72" font-weight="300" fill="none" stroke="#C9A96E" stroke-width="1.5" text-anchor="middle" letter-spacing="-2" opacity="0.35">W</text>
  <text x="170" y="158" font-family="Georgia, serif" font-size="72" font-weight="300" fill="#1D1D1F" text-anchor="middle" letter-spacing="-2" opacity="0.12">W</text>

  <!-- Divider -->
  <line x1="40" y1="170" x2="300" y2="170" stroke="#C9A96E" stroke-width="1" stroke-dasharray="3,4" opacity="0.5"/>

  <!-- Name -->
  <text x="170" y="200" font-family="Georgia, serif" font-size="18" font-weight="400" fill="#1D1D1F" text-anchor="middle" letter-spacing="3">WASSIM</text>
  <text x="170" y="222" font-family="Georgia, serif" font-size="18" font-weight="400" fill="#1D1D1F" text-anchor="middle" letter-spacing="3">LAOUISSI</text>

  <!-- Role tags -->
  <rect x="62" y="238" width="98" height="22" rx="2" fill="none" stroke="#C9A96E" stroke-width="1.2" stroke-dasharray="3,3"/>
  <text x="111" y="253" font-family="'DM Mono', monospace, sans-serif" font-size="9" fill="#A67C52" text-anchor="middle" letter-spacing="1.5">UI/UX DESIGNER</text>

  <rect x="178" y="238" width="100" height="22" rx="2" fill="none" stroke="#1D1D1F" stroke-width="1.2" stroke-dasharray="3,3"/>
  <text x="228" y="253" font-family="'DM Mono', monospace, sans-serif" font-size="9" fill="#1D1D1F" text-anchor="middle" letter-spacing="1.5">FRONTEND DEV</text>

  <!-- Divider -->
  <line x1="40" y1="278" x2="300" y2="278" stroke="#E0D8C8" stroke-width="1" opacity="0.8"/>

  <!-- Skills sketch list -->
  <text x="48" y="302" font-family="'DM Mono', monospace, sans-serif" font-size="10" fill="#A67C52" letter-spacing="1">◆</text>
  <text x="66" y="302" font-family="Georgia, serif" font-size="11" fill="#1D1D1F" letter-spacing="0.5">Figma  ·  Three.js  ·  GSAP</text>

  <text x="48" y="322" font-family="'DM Mono', monospace, sans-serif" font-size="10" fill="#A67C52" letter-spacing="1">◆</text>
  <text x="66" y="322" font-family="Georgia, serif" font-size="11" fill="#1D1D1F" letter-spacing="0.5">HTML  ·  CSS  ·  JavaScript</text>

  <text x="48" y="342" font-family="'DM Mono', monospace, sans-serif" font-size="10" fill="#A67C52" letter-spacing="1">◆</text>
  <text x="66" y="342" font-family="Georgia, serif" font-size="11" fill="#1D1D1F" letter-spacing="0.5">Design Systems  ·  Motion</text>

  <!-- Bottom quote -->
  <line x1="40" y1="362" x2="300" y2="362" stroke="#E0D8C8" stroke-width="1" opacity="0.8"/>
  <text x="170" y="385" font-family="Georgia, serif" font-style="italic" font-size="10.5" fill="#86868B" text-anchor="middle" letter-spacing="0.3">"Design is not decoration."</text>
  <text x="170" y="402" font-family="Georgia, serif" font-style="italic" font-size="10.5" fill="#86868B" text-anchor="middle" letter-spacing="0.3">"It is architecture."</text>

  <!-- Corner marks (sketch registration marks) -->
  <line x1="24" y1="24" x2="36" y2="24" stroke="#C9A96E" stroke-width="1" opacity="0.6"/>
  <line x1="24" y1="24" x2="24" y2="36" stroke="#C9A96E" stroke-width="1" opacity="0.6"/>
  <line x1="316" y1="24" x2="304" y2="24" stroke="#C9A96E" stroke-width="1" opacity="0.6"/>
  <line x1="316" y1="24" x2="316" y2="36" stroke="#C9A96E" stroke-width="1" opacity="0.6"/>
  <line x1="24" y1="396" x2="36" y2="396" stroke="#C9A96E" stroke-width="1" opacity="0.6"/>
  <line x1="24" y1="396" x2="24" y2="384" stroke="#C9A96E" stroke-width="1" opacity="0.6"/>
  <line x1="316" y1="396" x2="304" y2="396" stroke="#C9A96E" stroke-width="1" opacity="0.6"/>
  <line x1="316" y1="396" x2="316" y2="384" stroke="#C9A96E" stroke-width="1" opacity="0.6"/>
</svg>
